Coordinates
version=1
nRows=11
nColumns=42
inDegrees=yes

Units are S.I. units (second, meters, Newtons, ...)
If the header above contains a line with 'inDegrees', this indicates whether rotational values are in degrees (yes) or radians (no).

endheader
time	pelvis_tilt	pelvis_list	pelvis_rotation	pelvis_tx	pelvis_ty	pelvis_tz	hip_flexion_r	hip_adduction_r	hip_rotation_r	knee_angle_r	knee_adduction_r	knee_angle_r_beta	ankle_angle_r	subtalar_angle_r	mtp_angle_r	hip_flexion_l	hip_adduction_l	hip_rotation_l	knee_angle_l	knee_adduction_l	knee_angle_l_beta	ankle_angle_l	subtalar_angle_l	mtp_angle_l	lumbar_extension	lumbar_bending	lumbar_rotation	arm_flex_r	arm_add_r	arm_rot_r	elbow_flex_r	pro_sup_r	wrist_flex_r	wrist_dev_r	arm_flex_l	arm_add_l	arm_rot_l	elbow_flex_l	pro_sup_l	wrist_flex_l	wrist_dev_l
      2.62000000	     -1.91970958	      1.64973114	     -8.44120691	      0.35040526	      0.85318313	      0.28546483	      6.17155204	     -6.54274791	      1.59942799	     57.69755175	      6.46495736	      1.00701225	    -12.03186733	    -14.03359368	     -7.50028063	     20.06198903	     -3.36263047	     -3.06815782	     19.76164136	     11.08051341	      0.34490571	      3.41398695	    -15.48122101	     -7.50028063	     -7.06090391	     -3.87526440	      8.56012181	     12.48524819	    -20.85598809	     14.20531447	     49.48263013	     90.00000001	      0.00000000	      0.00000000	     -6.31090313	    -10.97886279	    -24.19331638	     27.15610784	     90.00000001	      0.00000000	      0.00000000
      2.63000000	     -1.93911760	      1.80277351	     -8.43862207	      0.36164937	      0.85447205	      0.28481463	      8.08722472	     -6.56712284	      1.46954634	     60.21175934	      5.87847652	      1.05089345	    -11.86896927	    -14.87034461	     -7.50027551	     19.22746115	     -3.06224251	     -3.02477438	     19.64887333	     11.15582106	      0.34293753	      4.11618065	    -15.23206669	     -7.50027551	     -7.08109585	     -4.00846816	      8.24820851	     11.83628950	    -20.64075111	     14.18877406	     48.81100533	     90.00000001	      0.00000000	      0.00000000	     -5.79008121	    -11.08247130	    -23.89362487	     27.41185879	     90.00000001	      0.00000000	      0.00000000
      2.64000000	     -2.00227008	      1.89038052	     -8.38275137	      0.37285262	      0.85575894	      0.28430212	     10.01418533	     -6.42724866	      1.28646196	     62.37951911	      5.27021095	      1.08872799	    -11.43761220	    -15.73214403	     -7.50027055	     18.35337404	     -2.81809833	     -3.01567311	     19.39317787	     11.20726710	      0.33847481	      4.82776540	    -15.00835261	     -7.50027055	     -6.99574311	     -4.10609704	      7.97142932	     11.18859768	    -20.40684167	     14.15953006	     47.95966577	     90.00000001	      0.00000000	      0.00000000	     -5.23347588	    -11.16004628	    -23.54333795	     27.64156142	     90.00000001	      0.00000000	      0.00000000
      2.65000000	     -2.09039440	      1.85653512	     -8.29077868	      0.38383662	      0.85711594	      0.28382250	     11.96421005	     -6.12688002	      0.97428701	     64.17153469	      4.64043083	      1.12000457	    -11.01543852	    -16.60149064	     -7.50025803	     17.42896740	     -2.69205532	     -2.79123739	     18.97792388	     11.27850617	      0.33122726	      5.53352303	    -14.85575012	     -7.50025803	     -6.94110405	     -4.02763560	      7.56219367	     10.89601670	    -19.87125600	     13.82142106	     46.17129874	     90.00000001	      0.00000000	      0.00000000	     -4.69114417	    -11.37955388	    -22.60315702	     27.71394363	     90.00000001	      0.00000000	      0.00000000
      2.66000000	     -2.13355217	      1.81528265	     -8.27965837	      0.39473196	      0.85844289	      0.28335184	     13.85744495	     -5.79578603	      0.83886124	     65.61472371	      4.14753836	      1.14519297	     -9.82573769	    -16.86183953	     -7.50025209	     16.43355614	     -2.58411634	     -3.00559588	     18.58629891	     11.25879539	      0.32439211	      6.15442900	    -14.46522602	     -7.50025209	     -6.96668078	     -3.93646918	      7.33427449	     10.25114493	    -19.73438344	     13.78545600	     45.39742044	     90.00000001	      0.00000000	      0.00000000	     -4.05676932	    -11.40465229	    -22.26160953	     28.06782079	     90.00000001	      0.00000000	      0.00000000
      2.67000000	     -2.20044093	      1.68844157	     -8.31262892	      0.40549341	      0.85972946	      0.28297525	     15.74429675	     -5.31769213	      0.68077228	     66.66186599	      3.68042137	      1.16346905	     -8.57113876	    -17.04387969	     -7.50024760	     15.39250783	     -2.59103444	     -3.33760099	     18.07236636	     11.23597306	      0.31542230	      6.75022202	    -14.02843214	     -7.50024760	     -6.98629769	     -3.75054805	      7.14225344	      9.60889485	    -19.60673665	     13.77474435	     44.54391521	     90.00000001	      0.00000000	      0.00000000	     -3.41379057	    -11.42389265	    -21.96982984	     28.40264877	     90.00000001	      0.00000000	      0.00000000
      2.68000000	     -2.29201203	      1.52921837	     -8.30428240	      0.41619386	      0.86095271	      0.28255936	     17.58941593	     -4.78562610	      0.47602245	     67.28345253	      3.26840684	      1.17431778	     -7.16311857	    -17.13488256	     -7.50024310	     14.33819637	     -2.60623434	     -3.62977620	     17.47736940	     11.18369591	      0.30503764	      7.38516941	    -13.51051025	     -7.50024310	     -6.98399285	     -3.49755301	      6.92350178	      9.03438150	    -19.45923521	     13.73843518	     43.50406515	     90.00000001	      0.00000000	      0.00000000	     -2.75454957	    -11.45180930	    -21.63883043	     28.71363926	     90.00000001	      0.00000000	      0.00000000
      2.69000000	     -2.34038346	      1.29689679	     -8.19343472	      0.42687008	      0.86216869	      0.28215932	     19.26148105	     -4.20800252	      0.20039518	     67.46416744	      3.01325662	      1.17747185	     -5.56584440	    -17.00751602	     -7.50023323	     13.17143063	     -2.66518589	     -3.69108490	     16.72216904	     11.15560282	      0.29185691	      8.24792624	    -12.70525754	     -7.50023323	     -7.01639171	     -3.17935889	      6.49943618	      8.90892874	    -18.96303154	     13.45388027	     41.37804976	     90.00000001	      0.00000000	      0.00000000	     -2.13156052	    -11.59141053	    -20.86805362	     28.86065186	     90.00000001	      0.00000000	      0.00000000
      2.70000000	     -2.47054045	      1.06513679	     -8.20048215	      0.43747645	      0.86317048	      0.28179470	     20.99471622	     -3.56294765	      0.06093888	     67.27338393	      2.81701890	      1.17414205	     -4.39731727	    -17.00051088	     -7.50022911	     12.13134362	     -2.76507012	     -4.25952148	     16.11550984	     11.02152851	      0.28126871	      8.62306347	    -12.17722323	     -7.50022911	     -6.97219631	     -2.83795240	      6.38581674	      8.19507716	    -18.95346261	     13.40781512	     40.59164617	     90.00000001	      0.00000000	      0.00000000	     -1.44395783	    -11.57181752	    -20.62468860	     29.29918800	     90.00000001	      0.00000000	      0.00000000
      2.71000000	     -2.60952170	      0.80842400	     -8.14864313	      0.44809362	      0.86406530	      0.28139063	     22.59568415	     -2.91430594	     -0.07565947	     66.63386723	      2.75781791	      1.16298038	     -3.24887714	    -16.92595980	     -7.50022546	     11.07337106	     -2.85270005	     -4.73510145	     15.42973383	     10.84843255	      0.26929966	      9.06320448	    -11.57944022	     -7.50022546	     -6.91008172	     -2.46063439	      6.14097437	      7.49546307	    -18.89214764	     13.36516836	     39.72446654	     90.00000001	      0.00000000	      0.00000000	     -0.80123820	    -11.57398871	    -20.37947861	     29.69103058	     90.00000001	      0.00000000	      0.00000000
      2.72000000	     -2.63350506	      0.52011322	     -8.00304359	      0.45870668	      0.86490424	      0.28100505	     23.92199585	     -2.32416081	     -0.00633338	     65.62018895	      3.10640335	      1.14528835	     -1.93097467	    -16.88823934	     -7.50021314	      9.81475684	     -2.99385101	     -4.87736854	     14.54692485	     10.85230894	      0.25389173	      9.96426216	    -10.26056305	     -7.50021314	     -6.97384482	     -2.07900784	      5.76006409	      7.49590454	    -18.40156400	     12.81710859	     37.26930763	     90.00000001	      0.00000000	      0.00000000	     -0.13220979	    -11.72010034	    -19.50664307	     29.98957012	     90.00000001	      0.00000000	      0.00000000
